<svg width="12" height="7" viewBox="0 0 12 7" fill="none" xmlns="http://www.w3.org/2000/svg">
<path fill-rule="evenodd" clip-rule="evenodd" d="M0.10967 6.32807C0.0394448 6.25776 0 6.16245 0 6.06307C0 5.9637 0.0394448 5.86839 0.10967 5.79807L5.73467 0.172074C5.80498 0.101849 5.90029 0.0624037 5.99967 0.0624037C6.09905 0.0624037 6.19436 0.101849 6.26467 0.172074L11.8897 5.79707C11.9559 5.86816 11.992 5.96218 11.9903 6.05934C11.9885 6.15649 11.9492 6.24918 11.8805 6.31789C11.8118 6.38659 11.7191 6.42595 11.6219 6.42766C11.5248 6.42938 11.4308 6.39331 11.3597 6.32707L5.99967 0.968074L0.63967 6.32807C0.569357 6.3983 0.474045 6.43774 0.37467 6.43774C0.275295 6.43774 0.179983 6.3983 0.10967 6.32807Z" fill="#00376B"/>
</svg>
