<svg width="5" height="9" viewBox="0 0 5 9" fill="none" xmlns="http://www.w3.org/2000/svg">
<path fill-rule="evenodd" clip-rule="evenodd" d="M0.470324 0.0770131C0.519543 0.0278555 0.586261 0.000244141 0.655824 0.000244141C0.725386 0.000244141 0.792105 0.0278555 0.841324 0.0770131L4.77952 4.01451C4.82868 4.06373 4.85629 4.13045 4.85629 4.20001C4.85629 4.26958 4.82868 4.33629 4.77952 4.38551L0.842024 8.32301C0.792262 8.36938 0.726446 8.39462 0.658441 8.39342C0.590435 8.39222 0.525551 8.36468 0.477456 8.31658C0.429362 8.26849 0.401812 8.2036 0.400612 8.1356C0.399413 8.06759 0.424656 8.00177 0.471024 7.95201L4.22232 4.20001L0.470324 0.448013C0.421166 0.398794 0.393555 0.332076 0.393555 0.262513C0.393555 0.19295 0.421166 0.126232 0.470324 0.0770131Z" fill="#00376B"/>
</svg>
