<svg width="20" height="17" viewBox="0 0 20 17" fill="none" xmlns="http://www.w3.org/2000/svg">
<path fill-rule="evenodd" clip-rule="evenodd" d="M6.58397 0.47265C6.67671 0.333551 6.83282 0.25 7 0.25H13C13.1672 0.25 13.3233 0.333551 13.416 0.47265L14.7676 2.5H17.5C18.0304 2.5 18.5391 2.71071 18.9142 3.08579C19.2893 3.46086 19.5 3.96957 19.5 4.5V15C19.5 15.5305 19.2893 16.0392 18.9142 16.4143C18.5391 16.7893 18.0304 17 17.5 17H2.5C1.96957 17 1.46086 16.7893 1.08579 16.4143C0.710714 16.0392 0.5 15.5305 0.5 15V4.5C0.5 3.96957 0.710714 3.46086 1.08579 3.08579C1.46086 2.71071 1.96957 2.5 2.5 2.5H5.23241L6.58397 0.47265ZM7.26759 1.25L5.91603 3.27735C5.82329 3.41645 5.66718 3.5 5.5 3.5H2.5C2.23478 3.5 1.98043 3.60536 1.79289 3.79289C1.60536 3.98043 1.5 4.23478 1.5 4.5V15C1.5 15.2653 1.60536 15.5196 1.79289 15.7071C1.98043 15.8947 2.23478 16 2.5 16H17.5C17.7652 16 18.0196 15.8947 18.2071 15.7071C18.3946 15.5196 18.5 15.2653 18.5 15V4.5C18.5 4.23478 18.3946 3.98043 18.2071 3.79289C18.0196 3.60536 17.7652 3.5 17.5 3.5H14.5C14.3328 3.5 14.1767 3.41645 14.084 3.27735L12.7324 1.25H7.26759ZM10 6.5C8.41218 6.5 7.125 7.78718 7.125 9.375C7.125 10.9629 8.41218 12.25 10 12.25C11.5878 12.25 12.875 10.9629 12.875 9.375C12.875 7.78718 11.5878 6.5 10 6.5ZM6.125 9.375C6.125 7.2349 7.8599 5.5 10 5.5C12.1401 5.5 13.875 7.2349 13.875 9.375C13.875 11.5151 12.1401 13.25 10 13.25C7.8599 13.25 6.125 11.5151 6.125 9.375Z" fill="#305F89"/>
</svg>
